# xmcd
#
# Track frame offsets: 
#        150
#        19292
#        47957
#        81697
#        119655
#        147447
#        170275
#        186612
#        212257
#        239052
#        268372
#        291785
#
# Disc length: 4249 seconds
#
# Revision: 2
# Processed by: cddbd v1.5.2PL0 Copyright (c) Steve Scherf et al.
# Submitted via: ExactAudioCopy v1.0b3
#
DISCID=c910970c
DTITLE=Robben Ford - The Blues Collection
DYEAR=1997
DGENRE=Blues
TTITLE0=Excuse My Blues
TTITLE1=Love Me Or Leave Me
TTITLE2=Blue Stu
TTITLE3=Blue And Lonesome
TTITLE4=That Will Never Do
TTITLE5=The Cotton Creeper
TTITLE6=Still A Stranger
TTITLE7=Take Out Some Insurance
TTITLE8=Help The Poor
TTITLE9=Mellow Down Easy
TTITLE10=Going Down Slow
TTITLE11=Pretty Woman
EXTD=
EXTT0=Charles Ford Band - 1971
EXTT1=Charlie Musselwhite - 1971
EXTT2=Charlie Musselwhite - 1971
EXTT3=Charles Ford Band - 1972
EXTT4=Charles Ford Band - 1982
EXTT5=Charles Ford Band - 1983
EXTT6=Charlie Musselwhite - 1984
EXTT7=Robben Ford - 1984
EXTT8=Robben Ford - 1984
EXTT9=Mark Ford - 1990
EXTT10=Jimmy Whitherspoon and Robben Ford - 1991
EXTT11=Robben Ford - 1991
PLAYORDER=
